<svg width="64" height="47" viewBox="0 0 64 47" fill="none" xmlns="http://www.w3.org/2000/svg">
<path d="M11.7426 23.5027C18.2279 23.5027 23.4853 18.2414 23.4853 11.7513C23.4853 5.26125 18.2279 0 11.7426 0C5.25736 0 0 5.26125 0 11.7513C0 18.2414 5.25736 23.5027 11.7426 23.5027Z" fill="#174DD5"/>
<path d="M38.3544 23.5026C31.8692 23.5026 26.6118 18.2414 26.6118 11.7513C26.6118 5.26124 31.8692 0 38.3544 0H45.3097V23.5026H38.3544Z" fill="#174DD5"/>
<path d="M52.2575 23.4974C58.7428 23.4974 64.0002 28.7586 64.0002 35.2487C64.0002 41.7388 58.7428 47 52.2575 47H45.3022V23.4974H52.2575Z" fill="#174DD5"/>
</svg>
