<svg width="213" height="56" viewBox="0 0 213 56" fill="none" xmlns="http://www.w3.org/2000/svg">
<path d="M1.15148 36.6934H2.50148V32.2084H5.41148C7.37648 32.2084 8.89148 31.3384 8.89148 29.0884C8.89148 26.8384 7.37648 25.9684 5.41148 25.9684H1.15148V36.6934ZM2.50148 27.1684H5.56148C6.89648 27.1684 7.54148 27.7834 7.54148 29.0884C7.54148 30.3934 6.89648 31.0084 5.56148 31.0084H2.50148V27.1684ZM13.3546 28.8334C12.2596 28.8334 11.6446 29.5534 11.2396 30.5584H11.2096V29.0434H10.0096V36.6934H11.2096V32.6134C11.2096 30.9784 12.3646 29.8084 14.0296 30.0784H14.0596V28.8784C13.8496 28.8484 13.6396 28.8334 13.3546 28.8334ZM18.1732 36.9034C15.8332 36.9034 14.4232 35.2534 14.4232 32.8684C14.4232 30.4834 15.8332 28.8334 18.1732 28.8334C20.4982 28.8334 21.9082 30.4834 21.9082 32.8684C21.9082 35.2534 20.4982 36.9034 18.1732 36.9034ZM18.1732 35.8534C19.8832 35.8534 20.7082 34.5034 20.7082 32.8684C20.7082 31.2334 19.8832 29.8834 18.1732 29.8834C16.4482 29.8834 15.6232 31.2334 15.6232 32.8684C15.6232 34.5034 16.4482 35.8534 18.1732 35.8534ZM23.7349 27.5584C24.0799 27.5584 24.4849 27.3034 24.4849 26.8384C24.4849 26.3734 24.0799 26.1184 23.7349 26.1184C23.4049 26.1184 22.9849 26.3734 22.9849 26.8384C22.9849 27.3034 23.4049 27.5584 23.7349 27.5584ZM23.1349 29.0434V37.3384C23.1349 38.2084 22.8949 38.2834 21.8749 38.2084V39.1084C22.3099 39.2284 22.6099 39.2734 22.9849 39.2734C24.0049 39.2734 24.3349 38.4934 24.3349 37.2184V29.0434H23.1349ZM29.3925 35.8534C27.7275 35.8534 26.9025 34.5634 26.9025 33.1834H32.9475C32.9475 30.4684 31.7775 28.8334 29.3775 28.8334C27.1425 28.8334 25.7025 30.3184 25.7025 32.8684C25.7025 35.2684 27.1125 36.9034 29.4375 36.9034C31.3425 36.9034 32.4375 35.7634 32.8275 34.3384H31.6275C31.4925 34.8634 30.9225 35.8534 29.3925 35.8534ZM29.3775 29.8834C30.8175 29.8834 31.7475 30.9034 31.7475 32.1334H26.9025C26.9025 30.9034 27.9375 29.8834 29.3775 29.8834ZM39.5655 31.8034H40.7655C40.5855 30.0934 39.2955 28.8334 37.4055 28.8334C35.1705 28.8334 33.7005 30.4684 33.7005 32.8684C33.7005 35.2684 35.1705 36.9034 37.4055 36.9034C39.2955 36.9034 40.6605 35.6134 40.7655 33.8734H39.5655C39.5055 34.7884 38.9505 35.8534 37.4055 35.8534C35.5905 35.8534 34.9005 34.3084 34.9005 32.8684C34.9005 31.4284 35.5905 29.8834 37.4055 29.8834C38.9355 29.8834 39.5055 30.9634 39.5655 31.8034ZM45.2439 30.0934V29.0434H43.7439V26.4934H42.5439V29.0434H41.4189V30.0934H42.5439V34.8184C42.5439 36.3784 43.3239 36.7834 44.3439 36.7834C44.6589 36.7834 44.9739 36.7534 45.2439 36.6934V35.6434C44.2239 35.7184 43.7439 35.5684 43.7439 34.6984V30.0934H45.2439ZM53.1318 28.8334C51.9018 28.8334 51.1818 29.3734 50.7318 30.0334H50.7018V25.9684H49.5018V36.6934H50.7018V35.7484H50.7318C51.1818 36.3334 51.9018 36.9034 53.1318 36.9034C55.0518 36.9034 56.5818 35.3884 56.5818 32.8684C56.5818 30.3484 55.0518 28.8334 53.1318 28.8334ZM53.0118 35.8534C51.5868 35.8534 50.7018 34.6684 50.7018 32.8684C50.7018 31.0684 51.5868 29.8834 53.0118 29.8834C54.5868 29.8834 55.3818 31.3684 55.3818 32.8684C55.3818 34.3684 54.5868 35.8534 53.0118 35.8534ZM64.1263 29.0434H62.7763L60.5713 35.2834H60.5413L58.2013 29.0434H56.8513L59.7463 36.0634C60.0463 36.8134 59.7313 37.4584 59.4163 37.8034C59.0113 38.2384 58.5463 38.2834 57.8863 38.2234H57.7063V39.1234C57.9013 39.1834 58.2463 39.2734 58.7263 39.2734C60.1363 39.2734 60.5263 38.1484 60.8563 37.3234L64.1263 29.0434ZM73.4331 25.9684V30.0334H73.4031C72.9531 29.3734 72.2331 28.8334 71.0031 28.8334C69.0831 28.8334 67.5531 30.3484 67.5531 32.8684C67.5531 35.3884 69.0831 36.9034 71.0031 36.9034C72.2331 36.9034 72.9531 36.3334 73.4031 35.7484H73.4331V36.6934H74.6331V25.9684H73.4331ZM71.1231 35.8534C69.5481 35.8534 68.7531 34.3684 68.7531 32.8684C68.7531 31.3684 69.5481 29.8834 71.1231 29.8834C72.5481 29.8834 73.4331 31.0684 73.4331 32.8684C73.4331 34.6684 72.5481 35.8534 71.1231 35.8534ZM79.5341 35.8534C77.8691 35.8534 77.0441 34.5634 77.0441 33.1834H83.0891C83.0891 30.4684 81.9191 28.8334 79.5191 28.8334C77.2841 28.8334 75.8441 30.3184 75.8441 32.8684C75.8441 35.2684 77.2541 36.9034 79.5791 36.9034C81.4841 36.9034 82.5791 35.7634 82.9691 34.3384H81.7691C81.6341 34.8634 81.0641 35.8534 79.5341 35.8534ZM79.5191 29.8834C80.9591 29.8834 81.8891 30.9034 81.8891 32.1334H77.0441C77.0441 30.9034 78.0791 29.8834 79.5191 29.8834ZM87.3821 32.1484C86.3171 31.8934 85.2821 31.8184 85.2821 30.9184C85.2821 30.3184 85.8671 29.8834 86.9471 29.8834C88.3871 29.8834 88.6721 30.6484 88.7921 31.2334H89.9921C89.8721 29.9134 88.8521 28.8334 86.9471 28.8334C85.1471 28.8334 84.0821 29.8084 84.0821 31.0084C84.0821 32.8084 85.8221 32.9434 86.9921 33.2284C88.0871 33.4984 89.0921 33.5584 89.0921 34.6684C89.0921 35.1784 88.5821 35.8534 87.2771 35.8534C85.3571 35.8534 85.0571 34.9984 84.9821 34.1434H83.7821C83.8571 35.7934 84.9371 36.9034 87.2771 36.9034C89.0171 36.9034 90.2921 35.9884 90.2921 34.5934C90.2921 32.7034 88.7471 32.4784 87.3821 32.1484ZM92.2049 27.5584C92.5499 27.5584 92.9549 27.3034 92.9549 26.8384C92.9549 26.3734 92.5499 26.1184 92.2049 26.1184C91.8749 26.1184 91.4549 26.3734 91.4549 26.8384C91.4549 27.3034 91.8749 27.5584 92.2049 27.5584ZM91.6049 29.0434V36.6934H92.8049V29.0434H91.6049ZM100.049 29.0434V29.9884H100.019C99.5693 29.4034 98.8493 28.8334 97.5893 28.8334C95.6993 28.8334 94.1693 30.0484 94.1693 32.5684C94.1693 35.0884 95.6993 36.3034 97.5893 36.3034C98.8493 36.3034 99.5693 35.7634 100.019 35.1034H100.049V36.2584C100.049 37.6834 99.2243 38.2984 97.7993 38.2984C96.3743 38.2984 95.7443 37.7134 95.5943 36.9334H94.3943C94.5143 38.2384 95.7593 39.3484 97.8593 39.3484C99.9593 39.3484 101.249 38.3134 101.249 36.2734V29.0434H100.049ZM97.7393 35.2534C96.1643 35.2534 95.3693 34.0684 95.3693 32.5684C95.3693 31.0684 96.1643 29.8834 97.7393 29.8834C99.1643 29.8834 100.049 30.7684 100.049 32.5684C100.049 34.3684 99.1643 35.2534 97.7393 35.2534ZM106.645 28.8334C105.34 28.8334 104.53 29.4184 104.125 29.9584H104.095V29.0434H102.895V36.6934H104.095V31.9234C104.095 30.7384 104.995 29.8834 106.345 29.8834C107.545 29.8834 108.01 30.6634 108.01 31.6534V36.6934H109.21V31.3534C109.21 29.5984 108.04 28.8334 106.645 28.8334ZM114.075 35.8534C112.41 35.8534 111.585 34.5634 111.585 33.1834H117.63C117.63 30.4684 116.46 28.8334 114.06 28.8334C111.825 28.8334 110.385 30.3184 110.385 32.8684C110.385 35.2684 111.795 36.9034 114.12 36.9034C116.025 36.9034 117.12 35.7634 117.51 34.3384H116.31C116.175 34.8634 115.605 35.8534 114.075 35.8534ZM114.06 29.8834C115.5 29.8834 116.43 30.9034 116.43 32.1334H111.585C111.585 30.9034 112.62 29.8834 114.06 29.8834ZM124.263 25.9684V30.0334H124.233C123.783 29.3734 123.063 28.8334 121.833 28.8334C119.913 28.8334 118.383 30.3484 118.383 32.8684C118.383 35.3884 119.913 36.9034 121.833 36.9034C123.063 36.9034 123.783 36.3334 124.233 35.7484H124.263V36.6934H125.463V25.9684H124.263ZM121.953 35.8534C120.378 35.8534 119.583 34.3684 119.583 32.8684C119.583 31.3684 120.378 29.8834 121.953 29.8834C123.378 29.8834 124.263 31.0684 124.263 32.8684C124.263 34.6684 123.378 35.8534 121.953 35.8534ZM130.593 28.8334C129.363 28.8334 128.643 29.3734 128.193 30.0334H128.163V25.9684H126.963V36.6934H128.163V35.7484H128.193C128.643 36.3334 129.363 36.9034 130.593 36.9034C132.513 36.9034 134.043 35.3884 134.043 32.8684C134.043 30.3484 132.513 28.8334 130.593 28.8334ZM130.473 35.8534C129.048 35.8534 128.163 34.6684 128.163 32.8684C128.163 31.0684 129.048 29.8834 130.473 29.8834C132.048 29.8834 132.843 31.3684 132.843 32.8684C132.843 34.3684 132.048 35.8534 130.473 35.8534ZM141.587 29.0434H140.237L138.032 35.2834H138.002L135.662 29.0434H134.312L137.207 36.0634C137.507 36.8134 137.192 37.4584 136.877 37.8034C136.472 38.2384 136.007 38.2834 135.347 38.2234H135.167V39.1234C135.362 39.1834 135.707 39.2734 136.187 39.2734C137.597 39.2734 137.987 38.1484 138.317 37.3234L141.587 29.0434ZM142.491 25.9684V36.6934H143.691V25.9684H142.491ZM150.07 30.9934C150.07 31.7584 149.485 31.9234 148.195 32.1634C146.215 32.5384 144.925 32.9884 144.925 34.7284C144.925 36.0184 145.9 36.9034 147.445 36.9034C148.705 36.9034 149.56 36.4534 150.04 35.7334H150.07C150.28 36.5734 150.715 36.7684 151.435 36.7684C151.66 36.7684 151.825 36.7534 152.14 36.6484V35.8084C151.375 35.8984 151.27 35.5684 151.27 34.9684V31.2484C151.27 29.4034 149.965 28.8334 148.51 28.8334C146.29 28.8334 145.375 29.9434 145.3 31.4134H146.5C146.575 30.3034 147.055 29.8834 148.51 29.8834C149.74 29.8834 150.07 30.3934 150.07 30.9934ZM147.565 35.8534C146.575 35.8534 146.125 35.4184 146.125 34.6684C146.125 33.7534 146.815 33.3784 148.3 33.0634C149.11 32.8984 149.845 32.6884 150.07 32.4634V33.7384C150.07 35.2084 148.99 35.8534 147.565 35.8534Z" fill="#174DD5"/>
<path d="M199.393 38.7376C199.57 35.7445 200.013 32.7735 200.716 29.86C205.988 27.6182 210.726 24.0425 212.317 18.5052L210.315 17.8999C208.969 22.3836 205.221 25.3539 201.417 27.2258C202.479 23.3043 203.848 19.4738 205.51 15.7701L204.331 14.2569C197.58 15.6693 192.008 22.8207 189.795 30.555C187.522 30.8959 185.215 30.9336 182.932 30.6671L182.599 32.7408C184.782 33.0101 186.989 33.0101 189.172 32.7408C188.816 34.105 188.545 35.4901 188.36 36.8881L190.44 37.1235C190.656 35.5404 190.983 33.9747 191.418 32.4381C193.786 32.0741 196.119 31.5079 198.392 30.7455C197.779 33.5023 197.407 36.3078 197.28 39.1299C189.479 40.927 182.347 44.9236 176.715 50.653C177.416 45.7322 179.596 33.0882 181.631 24.8719C189.283 21.1281 201.584 8.98861 194.655 1.41123C186.947 -2.45592 183.878 9.04464 179.841 23.3923C175.486 25.6227 170.466 26.1497 165.749 24.8719L165.148 26.8896C169.812 28.1822 174.772 27.8545 179.229 25.9592C176.749 36.0474 173.99 54.3744 174.191 53.5225L174.079 54.2959L175.636 55.0246C177.538 51.4152 189.706 42.1901 197.28 41.2149C197.435 46.1245 198.759 49.9804 201.261 52.7155L202.796 51.2919C200.383 48.6465 199.46 44.8803 199.36 40.8002C203.725 40.084 208.184 40.1751 212.517 41.0692L212.928 38.9954C208.467 38.1007 203.884 38.0135 199.393 38.7376V38.7376ZM192.097 30.1851C193.988 24.3003 198.025 18.763 202.663 17.0256C201.16 20.6687 199.915 24.4144 198.937 28.2347C196.72 29.0929 194.431 29.7457 192.097 30.1851V30.1851ZM191.196 2.82359C196.168 1.70268 194.533 9.493 193.131 11.2753C190.533 15.7764 186.815 19.5164 182.343 22.1257C186.236 7.18391 189.483 3.5746 191.196 2.82359Z" fill="#174DD5"/>
</svg>
