<svg width="273" height="59" viewBox="0 0 273 59" fill="none" xmlns="http://www.w3.org/2000/svg">
<path d="M14.4948 29.5248C22.5001 29.5248 28.9896 23.0322 28.9896 15.0231C28.9896 7.01409 22.5001 0.521484 14.4948 0.521484C6.48955 0.521484 0 7.01409 0 15.0231C0 23.0322 6.48955 29.5248 14.4948 29.5248Z" fill="#174DD5"/>
<path d="M47.3444 29.5248C39.3392 29.5248 32.8496 23.0322 32.8496 15.0231C32.8496 7.01408 39.3392 0.521484 47.3444 0.521484H55.9298V29.5248H47.3444Z" fill="#174DD5"/>
<path d="M64.5053 29.5176C72.5106 29.5176 79.0002 36.0102 79.0002 44.0192C79.0002 52.0282 72.5106 58.5208 64.5053 58.5208H55.9199V29.5176H64.5053Z" fill="#174DD5"/>
<path d="M99.759 19.1484V37.0234H111.384V35.0234H102.009V19.1484H99.759ZM114.552 21.7984C115.127 21.7984 115.802 21.3734 115.802 20.5984C115.802 19.8234 115.127 19.3984 114.552 19.3984C114.002 19.3984 113.302 19.8234 113.302 20.5984C113.302 21.3734 114.002 21.7984 114.552 21.7984ZM113.552 24.2734V37.0234H115.552V24.2734H113.552ZM117.226 24.2734L121.801 37.0234H124.076L128.651 24.2734H126.476L122.951 35.0234H122.926L119.401 24.2734H117.226ZM131.324 21.7984C131.899 21.7984 132.574 21.3734 132.574 20.5984C132.574 19.8234 131.899 19.3984 131.324 19.3984C130.774 19.3984 130.074 19.8234 130.074 20.5984C130.074 21.3734 130.774 21.7984 131.324 21.7984ZM130.324 24.2734V37.0234H132.324V24.2734H130.324ZM141.573 23.9234C139.398 23.9234 138.048 24.8984 137.373 25.7984H137.323V24.2734H135.323V37.0234H137.323V29.0734C137.323 27.0984 138.823 25.6734 141.073 25.6734C143.073 25.6734 143.848 26.9734 143.848 28.6234V37.0234H145.848V28.1234C145.848 25.1984 143.898 23.9234 141.573 23.9234ZM157.606 24.2734V25.8484H157.556C156.806 24.8734 155.606 23.9234 153.506 23.9234C150.356 23.9234 147.806 25.9484 147.806 30.1484C147.806 34.3484 150.356 36.3734 153.506 36.3734C155.606 36.3734 156.806 35.4734 157.556 34.3734H157.606V36.2984C157.606 38.6734 156.231 39.6984 153.856 39.6984C151.481 39.6984 150.431 38.7234 150.181 37.4234H148.181C148.381 39.5984 150.456 41.4484 153.956 41.4484C157.456 41.4484 159.606 39.7234 159.606 36.3234V24.2734H157.606ZM153.756 34.6234C151.131 34.6234 149.806 32.6484 149.806 30.1484C149.806 27.6484 151.131 25.6734 153.756 25.6734C156.131 25.6734 157.606 27.1484 157.606 30.1484C157.606 33.1484 156.131 34.6234 153.756 34.6234ZM166.079 24.2734L170.154 37.0234H172.279L175.104 26.4984H175.154L178.029 37.0234H180.154L184.229 24.2734H182.029L179.129 34.8484H179.079L176.204 24.2734H174.079L171.229 34.8484H171.179L168.279 24.2734H166.079ZM186.964 21.7984C187.539 21.7984 188.214 21.3734 188.214 20.5984C188.214 19.8234 187.539 19.3984 186.964 19.3984C186.414 19.3984 185.714 19.8234 185.714 20.5984C185.714 21.3734 186.414 21.7984 186.964 21.7984ZM185.964 24.2734V37.0234H187.964V24.2734H185.964ZM196.513 26.0234V24.2734H194.013V20.0234H192.013V24.2734H190.138V26.0234H192.013V33.8984C192.013 36.4984 193.313 37.1734 195.013 37.1734C195.538 37.1734 196.063 37.1234 196.513 37.0234V35.2734C194.813 35.3984 194.013 35.1484 194.013 33.6984V26.0234H196.513ZM204.854 23.9234C202.679 23.9234 201.329 24.8984 200.654 25.7984H200.604V19.1484H198.604V37.0234H200.604V29.0734C200.604 27.0984 202.104 25.6734 204.354 25.6734C206.354 25.6734 207.129 26.9734 207.129 28.6234V37.0234H209.129V28.1234C209.129 25.1984 207.179 23.9234 204.854 23.9234ZM225.192 37.3734C230.442 37.3734 233.942 33.4484 233.942 28.0734C233.942 22.6984 230.442 18.7984 225.192 18.7984C219.942 18.7984 216.442 22.6984 216.442 28.0734C216.442 33.4484 219.942 37.3734 225.192 37.3734ZM225.192 35.3734C220.692 35.3734 218.692 31.9234 218.692 28.0734C218.692 24.2234 220.692 20.7984 225.192 20.7984C229.692 20.7984 231.692 24.2234 231.692 28.0734C231.692 31.9234 229.692 35.3734 225.192 35.3734ZM249.574 25.0484H251.824C251.399 21.6484 248.599 18.7984 244.224 18.7984C239.324 18.7984 235.949 22.6984 235.949 28.0734C235.949 33.4734 239.324 37.3734 244.224 37.3734C248.624 37.3734 251.424 34.5234 251.824 30.5734H249.574C249.424 32.8234 247.974 35.3734 244.224 35.3734C239.974 35.3734 238.199 31.6984 238.199 28.0734C238.199 24.4734 239.974 20.7984 244.224 20.7984C247.949 20.7984 249.249 23.3484 249.574 25.0484ZM254.349 37.0234H260.824C265.749 37.0234 268.774 33.8484 268.774 28.0984C268.774 22.3484 265.749 19.1484 260.824 19.1484H254.349V37.0234ZM256.599 21.1484H260.824C265.374 21.1484 266.524 24.5984 266.524 28.0984C266.524 31.5984 265.374 35.0234 260.824 35.0234H256.599V21.1484Z" fill="#174DD5"/>
</svg>
